<svg xmlns="http://www.w3.org/2000/svg" viewBox="0 0 330 60.29"><defs><style>.cls-1,.cls-2,.cls-3{fill:none;stroke:#fff;stroke-linecap:square;stroke-width:6px;}.cls-1{stroke-linejoin:bevel;}.cls-2{stroke-linejoin:round;}.cls-3{stroke-miterlimit:10;}</style></defs><g id="레이어_2" data-name="레이어 2"><g id="레이어_1-2" data-name="레이어 1"><path class="cls-1" d="M183,3H147V57h36"/><polyline class="cls-2" points="219 3 219 57 255 3 255 57"/><line class="cls-3" x1="147" y1="30" x2="183" y2="30"/><path class="cls-3" d="M39,16.5C39,9.09,30.87,3,21,3S3,9.09,3,16.5L21,30,39,43.5C39,50.91,30.87,57,21,57S3,50.91,3,43.5"/><path class="cls-3" d="M327,16.5C327,9.09,318.87,3,309,3s-18,6.09-18,13.5L309,30l18,13.5c0,7.41-8.13,13.5-18,13.5s-18-6.09-18-13.5"/><path class="cls-3" d="M75,56.92C75.61,52.31,82.26,3.15,92.41,3c10.44-.15,22.44,51.66,17.41,53.92-1.56.7-4.89-3.28-8.71-9"/></g></g></svg>